<svg width="300" height="59" viewBox="0 0 300 59" fill="none" xmlns="http://www.w3.org/2000/svg">
<path d="M14.6237 0C21.9341 0 25.5908 3.68829 25.5908 11.0617H21.9341C21.9341 6.14505 19.4952 3.68829 14.6237 3.68829H10.967C6.09245 3.68829 3.65671 6.14819 3.65671 11.0617V36.8734C3.65671 41.7901 6.09245 44.2469 10.967 44.2469H14.6237C19.4983 44.2469 21.9341 41.7901 21.9341 36.8734H25.5908C25.5908 44.2469 21.9341 47.9351 14.6237 47.9351H10.967C3.65671 47.9351 0 44.25 0 36.8734V11.0617C0 3.68829 3.65671 0 10.967 0H14.6237Z" fill="white"/>
<path d="M50.2314 45.9465C48.4529 47.2754 46.0141 47.9383 42.9211 47.9383H39.2644C31.9541 47.9383 28.2974 44.25 28.2974 36.8766V22.1234C28.2974 14.75 31.9541 11.0617 39.2644 11.0617H42.9211C46.0172 11.0617 48.4529 11.7246 50.2314 13.0535V11.0617H53.8882V47.9351H50.2314V45.9465ZM50.2314 36.8734V22.1234C50.2314 17.2068 47.7926 14.75 42.9211 14.75H39.2644C34.3898 14.75 31.9541 17.2099 31.9541 22.1234V36.8734C31.9541 41.7901 34.3898 44.2468 39.2644 44.2468H42.9211C47.7957 44.25 50.2314 41.7901 50.2314 36.8734Z" fill="white"/>
<path d="M75.8223 22.1234C75.8223 17.2068 73.3835 14.75 68.512 14.75C63.6374 14.75 61.2017 17.2099 61.2017 22.1234V47.9351H57.545V11.0617H61.2017V13.0535C62.9802 11.7246 65.419 11.0617 68.512 11.0617C72.8508 11.0617 75.8971 12.3529 77.6507 14.9322C79.4043 12.3498 82.4505 11.0617 86.7893 11.0617C94.0996 11.0617 97.7563 14.75 97.7563 22.1234V47.9351H94.0996V22.1234C94.0996 17.2068 91.6608 14.75 86.7893 14.75C81.9147 14.75 79.479 17.2099 79.479 22.1234V47.9351H75.8223V22.1234Z" fill="white"/>
<path d="M105.07 13.0535C106.848 11.7246 109.287 11.0617 112.38 11.0617H116.037C123.347 11.0617 127.004 14.75 127.004 22.1234V36.8734C127.004 44.2468 123.347 47.9351 116.037 47.9351H112.38C109.284 47.9351 106.848 47.2722 105.07 45.9433V58.9968H101.413V11.0617H105.07V13.0535ZM112.383 14.75C107.509 14.75 105.073 17.2099 105.073 22.1234V36.8734C105.073 41.7901 107.509 44.2468 112.383 44.2468H116.04C120.915 44.2468 123.35 41.7901 123.35 36.8734V22.1234C123.35 17.2068 120.911 14.75 116.04 14.75H112.383Z" fill="white"/>
<path d="M134.317 11.0617V36.8734C134.317 41.7901 136.753 44.2468 141.628 44.2468H145.284C150.159 44.2468 152.595 41.7901 152.595 36.8734V11.0617H156.251V47.9351H152.595V45.9433C150.816 47.2723 148.377 47.9351 145.284 47.9351H141.628C134.317 47.9351 130.661 44.2468 130.661 36.8734V11.0617H134.317Z" fill="white"/>
<path d="M174.532 11.0617C181.842 11.0617 185.499 14.1342 185.499 20.2793H181.842C181.842 16.591 179.403 14.7469 174.532 14.7469H170.875C166 14.7469 163.565 16.591 163.565 20.2793C163.565 21.7559 167.221 24.4577 174.532 28.391C181.842 32.3243 185.499 35.7644 185.499 38.7144C185.499 44.8595 181.842 47.932 174.532 47.932H170.875C163.565 47.932 159.908 44.8595 159.908 38.7144H163.565C163.565 42.4027 166 44.2469 170.875 44.2469H174.532C179.406 44.2469 181.842 42.4027 181.842 38.7144C181.842 37.241 178.185 34.5361 170.875 30.6027C163.565 26.6694 159.908 23.2262 159.908 20.2762C159.908 14.1311 163.565 11.0586 170.875 11.0586H174.532V11.0617Z" fill="white"/>
<path d="M203.714 14.8662H191.049V6.92732H225.137V14.8662H212.473V47.9351H203.714V14.8662Z" fill="white"/>
<path d="M237.387 14.8662V23.0439H257.805V30.9829H237.387V39.9962H259.935V47.9351H228.629V6.92732H259.935V14.8662H237.387Z" fill="white"/>
<path d="M262.598 27.4014C262.598 15.881 272.54 6.21103 284.199 6.21103C290.354 6.21103 296.035 8.83744 300 13.0755L293.668 18.8059C291.301 16.0601 287.927 14.2096 284.199 14.2096C277.393 14.2096 271.594 20.2981 271.594 27.4014C271.594 34.5643 277.393 40.6528 284.199 40.6528C287.927 40.6528 291.301 38.8024 293.668 36.0566L300 41.787C296.035 45.9653 290.354 48.6515 284.199 48.6515C272.54 48.6546 262.598 38.9218 262.598 27.4014Z" fill="white"/>
</svg>
